<svg xmlns="http://www.w3.org/2000/svg" xmlns:xlink="http://www.w3.org/1999/xlink" viewBox="0 0 2773.56 2774.05"><defs><style>.cls-1{fill:url(#linear-gradient);}.cls-2{fill:#0f5bfa;}.cls-3{fill:#b2c9fb;}.cls-4{fill:#041e75;}.cls-5{fill:url(#linear-gradient-2);}.cls-6{fill:url(#linear-gradient-3);}.cls-7{fill:#fff;opacity:0.78;}.cls-8{fill:url(#linear-gradient-4);}.cls-9{fill:url(#linear-gradient-5);}.cls-10{fill:url(#linear-gradient-6);}.cls-11{fill:url(#linear-gradient-7);}.cls-12{fill:url(#linear-gradient-8);}.cls-13{fill:url(#linear-gradient-9);}.cls-14{fill:url(#linear-gradient-10);}.cls-15{fill:url(#linear-gradient-11);}.cls-16{fill:url(#linear-gradient-12);}.cls-17{fill:url(#linear-gradient-13);}.cls-18{fill:url(#linear-gradient-14);}.cls-19{fill:url(#linear-gradient-15);}.cls-20{fill:url(#linear-gradient-16);}.cls-21{fill:url(#linear-gradient-17);}.cls-22{fill:url(#linear-gradient-18);}.cls-23{fill:url(#linear-gradient-19);}.cls-24{fill:url(#linear-gradient-20);}.cls-25{fill:url(#linear-gradient-21);}.cls-26{fill:url(#linear-gradient-22);}.cls-27{fill:url(#linear-gradient-23);}.cls-28{fill:url(#linear-gradient-24);}.cls-29{fill:url(#linear-gradient-25);}.cls-30{fill:url(#linear-gradient-26);}.cls-31{fill:url(#linear-gradient-27);}.cls-32{fill:url(#linear-gradient-28);}.cls-33{fill:url(#linear-gradient-29);}.cls-34{fill:url(#linear-gradient-30);}.cls-35{fill:url(#linear-gradient-31);}.cls-36{fill:url(#linear-gradient-32);}.cls-37{fill:url(#linear-gradient-33);}.cls-38{fill:url(#linear-gradient-34);}.cls-39{fill:url(#linear-gradient-35);}.cls-40{fill:url(#linear-gradient-36);}.cls-41{fill:url(#linear-gradient-37);}.cls-42{fill:url(#linear-gradient-38);}.cls-43{fill:url(#linear-gradient-39);}.cls-44{fill:url(#linear-gradient-40);}.cls-45{fill:url(#linear-gradient-41);}.cls-46{fill:url(#linear-gradient-42);}</style><linearGradient id="linear-gradient" x1="3111.49" y1="3582.83" x2="649.96" y2="525.76" gradientUnits="userSpaceOnUse"><stop offset="0" stop-color="#354375"/><stop offset="1" stop-color="#e9effd"/></linearGradient><linearGradient id="linear-gradient-2" x1="2043.29" y1="2226.76" x2="2454.59" y2="1749.36" gradientTransform="translate(1951.53 -1231.98) rotate(45)" gradientUnits="userSpaceOnUse"><stop offset="0" stop-color="#e8712d"/><stop offset="1" stop-color="#f8bc66"/></linearGradient><linearGradient id="linear-gradient-3" x1="2687.01" y1="1401.16" x2="1470.77" y2="3238.54" gradientTransform="translate(1951.53 -1231.98) rotate(45)" gradientUnits="userSpaceOnUse"><stop offset="0" stop-color="#f8bc66"/><stop offset="1" stop-color="#e8712d"/></linearGradient><linearGradient id="linear-gradient-4" x1="2470.78" y1="1473.93" x2="2470.78" y2="1866.28" gradientTransform="matrix(1, 0, 0, 1, 0, 0)" xlink:href="#linear-gradient-3"/><linearGradient id="linear-gradient-5" x1="2485.55" y1="2081.84" x2="2425.6" y2="2367.57" gradientTransform="matrix(1, 0, 0, 1, 0, 0)" xlink:href="#linear-gradient-3"/><linearGradient id="linear-gradient-6" x1="2486.02" y1="2211.06" x2="2426.07" y2="2496.79" gradientTransform="matrix(1, 0, 0, 1, 0, 0)" xlink:href="#linear-gradient-3"/><linearGradient id="linear-gradient-7" x1="2486.49" y1="2340.28" x2="2426.54" y2="2626.01" gradientTransform="matrix(1, 0, 0, 1, 0, 0)" xlink:href="#linear-gradient-3"/><linearGradient id="linear-gradient-8" x1="2486.96" y1="2466.15" x2="2427.01" y2="2751.88" gradientTransform="matrix(1, 0, 0, 1, 0, 0)" xlink:href="#linear-gradient-3"/><linearGradient id="linear-gradient-9" x1="2487.43" y1="2592.02" x2="2427.48" y2="2877.76" gradientTransform="matrix(1, 0, 0, 1, 0, 0)" xlink:href="#linear-gradient-3"/><linearGradient id="linear-gradient-10" x1="1392.37" y1="2362.67" x2="1803.68" y2="1885.27" gradientTransform="translate(1856.98 -731.91) rotate(45)" xlink:href="#linear-gradient-2"/><linearGradient id="linear-gradient-11" x1="2036.09" y1="1537.06" x2="819.85" y2="3374.45" gradientTransform="translate(1856.98 -731.91) rotate(45)" xlink:href="#linear-gradient-3"/><linearGradient id="linear-gradient-12" x1="1869.39" y1="1525.8" x2="1793.6" y2="2087.57" gradientTransform="matrix(1, 0, 0, 1, 0, 0)" xlink:href="#linear-gradient-3"/><linearGradient id="linear-gradient-13" x1="1834.63" y1="2204.37" x2="1774.68" y2="2490.1" gradientTransform="matrix(1, 0, 0, 1, 0, 0)" xlink:href="#linear-gradient-3"/><linearGradient id="linear-gradient-14" x1="1835.1" y1="2333.59" x2="1775.15" y2="2619.32" gradientTransform="matrix(1, 0, 0, 1, 0, 0)" xlink:href="#linear-gradient-3"/><linearGradient id="linear-gradient-15" x1="1835.57" y1="2462.81" x2="1775.62" y2="2748.54" gradientTransform="matrix(1, 0, 0, 1, 0, 0)" xlink:href="#linear-gradient-3"/><linearGradient id="linear-gradient-16" x1="1836.04" y1="2592.02" x2="1776.1" y2="2877.76" gradientTransform="matrix(1, 0, 0, 1, 0, 0)" xlink:href="#linear-gradient-3"/><linearGradient id="linear-gradient-17" x1="380.99" y1="2468.33" x2="399.6" y2="2468.33" gradientTransform="matrix(1, 0, 0, 1, 0, 0)" xlink:href="#linear-gradient-2"/><linearGradient id="linear-gradient-18" x1="219" y1="1582.12" x2="1351.8" y2="1582.12" gradientTransform="matrix(1, 0, 0, 1, 0, 0)" xlink:href="#linear-gradient-2"/><linearGradient id="linear-gradient-19" x1="1369.04" y1="725.58" x2="1392.24" y2="725.58" gradientTransform="matrix(1, 0, 0, 1, 0, 0)" xlink:href="#linear-gradient-2"/><linearGradient id="linear-gradient-20" x1="1386.23" y1="500.17" x2="1299.29" y2="831.22" gradientTransform="matrix(1, 0, 0, 1, 0, 0)" xlink:href="#linear-gradient-3"/><linearGradient id="linear-gradient-21" x1="1805.16" y1="137.84" x2="2059.3" y2="-668.04" gradientUnits="userSpaceOnUse"><stop offset="0" stop-color="#4f52ff"/><stop offset="1" stop-color="#041e75"/></linearGradient><linearGradient id="linear-gradient-22" x1="2156.59" y1="-255.75" x2="2042.9" y2="55.24" gradientTransform="matrix(1, 0, 0, 1, 0, 0)" xlink:href="#linear-gradient-3"/><linearGradient id="linear-gradient-23" x1="-1574.42" y1="4977.46" x2="-1399.71" y2="4977.46" gradientTransform="matrix(-0.59, -0.81, -0.81, 0.59, 4901.42, -3632.97)" gradientUnits="userSpaceOnUse"><stop offset="0" stop-color="#09005d"/><stop offset="1" stop-color="#1a0f91"/></linearGradient><linearGradient id="linear-gradient-24" x1="-1545.83" y1="5183.71" x2="-1430.41" y2="5183.71" xlink:href="#linear-gradient-23"/><linearGradient id="linear-gradient-25" x1="1320.03" y1="2637.15" x2="782.34" y2="3222.01" gradientTransform="matrix(1, 0, 0, 1, 0, 0)" xlink:href="#linear-gradient-23"/><linearGradient id="linear-gradient-26" x1="1145.51" y1="2680.59" x2="1193.27" y2="2680.59" gradientUnits="userSpaceOnUse"><stop offset="0" stop-color="#f8bc66"/><stop offset="1" stop-color="#f8bc66"/></linearGradient><linearGradient id="linear-gradient-27" x1="1032.26" y1="2315.4" x2="1190.18" y2="2315.4" gradientTransform="matrix(1, 0, 0, 1, 0, 0)" xlink:href="#linear-gradient-23"/><linearGradient id="linear-gradient-28" x1="1199.41" y1="2526.26" x2="661.72" y2="3111.11" gradientTransform="matrix(1, 0, 0, 1, 0, 0)" xlink:href="#linear-gradient-23"/><linearGradient id="linear-gradient-29" x1="973.38" y1="2678.14" x2="1014.62" y2="2678.14" xlink:href="#linear-gradient-26"/><linearGradient id="linear-gradient-30" x1="928.93" y1="2310.23" x2="1153.13" y2="2310.23" gradientTransform="matrix(1, 0, 0, 1, 0, 0)" xlink:href="#linear-gradient-23"/><linearGradient id="linear-gradient-31" x1="1580.39" y1="996.87" x2="1349.67" y2="1322.89" gradientTransform="matrix(1, 0, 0, 1, 0, 0)" xlink:href="#linear-gradient-3"/><linearGradient id="linear-gradient-32" x1="1342.04" y1="1434.58" x2="1586.04" y2="1434.58" xlink:href="#linear-gradient-26"/><linearGradient id="linear-gradient-33" x1="7979.65" y1="1393.68" x2="8143.38" y2="1766.2" gradientTransform="matrix(-1, 0, 0, 1, 9511.34, 0)" xlink:href="#linear-gradient-26"/><linearGradient id="linear-gradient-34" x1="1584.87" y1="1269.62" x2="1653.19" y2="1164.58" xlink:href="#linear-gradient-26"/><linearGradient id="linear-gradient-35" x1="1440.56" y1="897.92" x2="1209.84" y2="1223.93" gradientTransform="matrix(1, 0, 0, 1, 0, 0)" xlink:href="#linear-gradient-3"/><linearGradient id="linear-gradient-36" x1="808.12" y1="1780.2" x2="1116.9" y2="1780.2" xlink:href="#linear-gradient-26"/><linearGradient id="linear-gradient-37" x1="1143.43" y1="1849.7" x2="1407.21" y2="1386.89" xlink:href="#linear-gradient-21"/><linearGradient id="linear-gradient-38" x1="1093.98" y1="1747.82" x2="1190.18" y2="1747.82" xlink:href="#linear-gradient-26"/><linearGradient id="linear-gradient-39" x1="1045.22" y1="1450.09" x2="1167.31" y2="1450.09" xlink:href="#linear-gradient-26"/><linearGradient id="linear-gradient-40" x1="-4802.68" y1="-797.79" x2="-4848.31" y2="-948.26" gradientTransform="matrix(0.75, -0.67, 0.67, 0.75, 5310.39, -1230.53)" xlink:href="#linear-gradient-26"/><linearGradient id="linear-gradient-41" x1="-4843.84" y1="-1059.96" x2="-4805.68" y2="-842.29" gradientTransform="matrix(0.75, -0.67, 0.67, 0.75, 5310.39, -1230.53)" xlink:href="#linear-gradient-23"/><linearGradient id="linear-gradient-42" x1="-4849.32" y1="-798.49" x2="-4890.37" y2="-933.87" gradientTransform="matrix(0.75, -0.67, 0.67, 0.75, 5310.39, -1230.53)" xlink:href="#linear-gradient-26"/></defs><title>sales</title><g id="Layer_2" data-name="Layer 2"><g id="Illustration"><path class="cls-1" d="M2434.31,2377.23c-56.54,59.53-110,97.91-152.31,128.24-496.85,356.49-1084.75,252.58-1209.7,227.2-184.5-37.47-541.15-109.91-799-413.14C-116.8,1860.78-56.06,1138,246.53,660.92c55.35-87.27,347.72-571.64,942-649.31,359.62-47,778.83,47.8,1082.41,302.14C2908.14,847.63,2862.77,1926.16,2434.31,2377.23Z"/><path class="cls-2" d="M42.41,641.55a4.3,4.3,0,0,1-2.8-3.7c-.43-5.65-.73-11.39-.92-17.08a4.18,4.18,0,0,1,4.16-4.3c5.76-.13,4.2,5.62,5.34,20.88a4.17,4.17,0,0,1-4,4.47A4.33,4.33,0,0,1,42.41,641.55Z"/><path class="cls-2" d="M40.4,567.58c1.05-10.82,2.56-21.72,4.48-32.42a4.23,4.23,0,0,1,5-3.36c6.37,1.24,2.22,4.83-.89,36.71a4.21,4.21,0,0,1-4.7,3.74A4.32,4.32,0,0,1,40.4,567.58Zm17.16-84c3.29-10.41,7-20.88,11-30.76,2.14-5.31,10.07-1.86,8,3.23-4,9.85-7.61,20-10.82,30.15a4.32,4.32,0,0,1-8.23-2.62ZM91.65,405c5.34-9.45,11.13-18.81,17.22-27.81,3.14-4.64,10.31.14,7.19,4.75-6,8.83-11.64,18-16.87,27.25C96.44,414.08,88.91,409.87,91.65,405Zm50.29-63.89a4.18,4.18,0,0,1-.45-6c7.21-8.14,14.85-16.11,22.71-23.68,4-3.88,10.11,2.21,6.07,6.09-7.7,7.42-15.19,15.22-22.26,23.2A4.34,4.34,0,0,1,141.94,341.13Zm62.23-58.19A4.16,4.16,0,0,1,205,277c8.78-6.51,17.93-12.76,27.19-18.57,4.78-3,9.48,4.17,4.71,7.16-9.08,5.69-18.05,11.81-26.65,18.19A4.39,4.39,0,0,1,204.17,282.94Zm75.5-42.23a4.35,4.35,0,0,1-2.38-2.15,4.15,4.15,0,0,1,2-5.63c10-4.61,20.25-8.88,30.54-12.7a4.39,4.39,0,0,1,5.58,2.47,4.16,4.16,0,0,1-2.44,5.45c-10.08,3.74-20.15,7.93-29.92,12.45A4.34,4.34,0,0,1,279.67,240.71Zm81.25-27.94a4.33,4.33,0,0,1-2.68-3,4.16,4.16,0,0,1,3.11-5.1c10.73-2.5,21.7-4.62,32.61-6.3a4.36,4.36,0,0,1,5,3.53,4.16,4.16,0,0,1-3.51,4.83c-10.69,1.64-21.44,3.72-32,6.18A4.38,4.38,0,0,1,360.92,212.77Zm82.78-14.85a4.19,4.19,0,0,1,4.12-4.34c11-.29,22.26-.15,33.34.41,5.7.31,5.36,8.74-.32,8.45-10.85-.55-21.84-.68-32.66-.4A4.34,4.34,0,0,1,443.7,197.92Zm275.73,91.91c-25.78-19.69-31.58-19.37-28-24.7a4.32,4.32,0,0,1,6-1.18c9.31,6,18.49,12.5,27.31,19.23C729.17,286.63,724,293.29,719.43,289.83ZM530.09,203.55a4.23,4.23,0,0,1,4.95-3.41c10.91,1.94,21.89,4.32,32.65,7.09,5.53,1.42,3.46,9.6-2.06,8.18-10.54-2.71-21.31-5-32-6.94A4.32,4.32,0,0,1,530.09,203.55Zm116.23,41.36c-29.18-14.11-34.86-12.66-32.51-18.63,1.49-3.79,6.08-2.37,5.56-2.35,10.37,4.07,20.68,8.58,30.65,13.39a4.24,4.24,0,0,1,2,5.67A4.29,4.29,0,0,1,646.32,244.91Z"/><path class="cls-2" d="M771.56,337c-9.88-10.56-16-14.13-11.9-18.16a4.34,4.34,0,0,1,6.08.05c10.66,10.51,16,14.7,11.91,18.41C776.42,338.39,773.18,338.71,771.56,337Z"/><path class="cls-2" d="M886.68,645.33a4.31,4.31,0,0,1-2.8-4.23c.3-5.56.48-11.18.55-16.73a4.2,4.2,0,0,1,4.36-4.11,4.35,4.35,0,0,1,4.25,4.35c-.07,5.65-.26,11.39-.57,17.06a4.2,4.2,0,0,1-4.52,3.94A4.5,4.5,0,0,1,886.68,645.33Z"/><path class="cls-2" d="M306.24,1000.62c-11.08-4.53-22.09-9.57-32.73-15a4.23,4.23,0,0,1-1.92-5.7c3-5.84,5.45-.37,37.85,12.89a4.25,4.25,0,0,1,2.39,5.53C310.29,1002.12,305.72,1000.64,306.24,1000.62ZM358.57,1014c1.63-6.35,5.4-1.5,39.65,4.56a4.3,4.3,0,0,1,3.55,4.91,4.22,4.22,0,0,1-4.95,3.41c-11.72-2.07-23.54-4.66-35.13-7.7A4.29,4.29,0,0,1,358.57,1014ZM223.31,955.7c-9.8-6.79-19.46-14.08-28.68-21.66a4.21,4.21,0,0,1-.59-6c4.25-5,5.4.83,34.16,20.73a4.22,4.22,0,0,1,1.1,5.9A4.34,4.34,0,0,1,223.31,955.7Zm230.17,77.17a4.33,4.33,0,0,1-2.81-4.13,4.19,4.19,0,0,1,4.41-4c11.69.47,23.52.46,35.16,0a4.36,4.36,0,0,1,4.55,4,4.18,4.18,0,0,1-4,4.41c-11.88.51-24,.52-35.89,0A4.45,4.45,0,0,1,453.48,1032.87Zm92.73-6.38a4.36,4.36,0,0,1-2.74-3.19,4.16,4.16,0,0,1,3.39-4.92c11.44-2.06,22.94-4.63,34.17-7.64a4.38,4.38,0,0,1,5.33,3,4.17,4.17,0,0,1-3,5.19c-11.47,3.07-23.2,5.69-34.88,7.79A4.31,4.31,0,0,1,546.21,1026.49ZM635,1000.24a4.36,4.36,0,0,1-2.45-2.29,4.15,4.15,0,0,1,2.2-5.55c10.68-4.48,21.29-9.46,31.55-14.81a4.39,4.39,0,0,1,5.84,1.77,4.16,4.16,0,0,1-1.72,5.72c-10.46,5.46-21.3,10.54-32.2,15.11A4.32,4.32,0,0,1,635,1000.24Zm80.54-44.73a4.34,4.34,0,0,1-2-1.49,4.15,4.15,0,0,1,.91-5.9c9.4-6.67,18.62-13.82,27.41-21.25a4.36,4.36,0,0,1,6.07.48,4.17,4.17,0,0,1-.4,6c-9,7.58-18.38,14.88-28,21.69A4.31,4.31,0,0,1,715.51,955.51Zm67.1-61.87c-5.05-4.38.9-5.26,21.48-32.7,3.36-4.47,10.31.61,7,5.09-7,9.36-14.55,18.54-22.37,27.28A4.34,4.34,0,0,1,782.61,893.64Zm53.66-74.06c-5.89-3.19-.34-5.3,13.54-36.64,2.25-5.08,10.17-1.64,7.9,3.47-4.73,10.7-10,21.3-15.61,31.53A4.3,4.3,0,0,1,836.27,819.58Zm35.26-84.15a4.28,4.28,0,0,1-2.65-5.15c3.16-11.06,5.88-22.35,8.07-33.54a4.24,4.24,0,0,1,5-3.28,4.31,4.31,0,0,1,3.41,5c-2.23,11.42-5,22.93-8.23,34.21a4.26,4.26,0,0,1-5.31,2.86Z"/><path class="cls-2" d="M152,893.86c-10.18-11-15.31-15.4-11-18.91,4.45-3.66,6.94,2,17.36,13.27a4.17,4.17,0,0,1-.25,6A4.36,4.36,0,0,1,152,893.86Z"/><path class="cls-2" d="M199.09,786.91l61.17-7.57a274,274,0,0,0,66.33,56.59c2.39,59-1.62,63.29,4.68,65.39l70.5,23.49a5.07,5.07,0,0,0,5.61-1.67l37.13-47.92a272.92,272.92,0,0,0,86.91-5.55l44.5,42.78a5.16,5.16,0,0,0,5.82.93l66-32.15a4.87,4.87,0,0,0,2.72-5.09l-8.63-60.25a260.17,260.17,0,0,0,56.58-64.36l61.72-.23a5,5,0,0,0,4.73-3.38L787.68,679a5,5,0,0,0-1.77-5.54L736.58,636.2a261.08,261.08,0,0,0-7-85.52c41-43,46.71-43,43.72-48.81-34.19-63.53-32.24-68.94-38.94-68.11l-61.17,7.57a273.77,273.77,0,0,0-66.33-56.59c-2.38-58.95,1.63-63.29-4.68-65.39-70.44-22.13-72.12-27-76.11-21.82L489,345.45a272.86,272.86,0,0,0-86.9,5.55c-43.81-40.41-44.38-46.61-50.33-43.71C287,340.25,282.11,338,283,344.53l8.63,60.25a259.93,259.93,0,0,0-56.57,64.36c-58.92,1.43-64.38-2.69-66.46,3.61-21.36,68.61-26.39,70.47-21,74.49l49.32,37.23a261.08,261.08,0,0,0,7,85.52c-40.81,42.83-46.72,43-43.71,48.81C194.34,782.33,192.39,787.74,199.09,786.91Z"/><path class="cls-3" d="M394.65,604.59c2.62-39,37.1-68.21,76.85-65s70,37.5,67.34,76.53-37.1,68.21-76.85,65h0C422.23,678,392,643.61,394.65,604.59Zm67.76,70.21h0Zm8.24-122.6c-32.26-2.58-60.93,20.88-63.11,53.41-2.16,32.06,22.65,60.27,55.3,62.86s61-21.36,63.12-53.41S503.24,554.79,470.65,552.2Z"/><path class="cls-3" d="M403.85,779.37h0A190.43,190.43,0,0,1,375,765.62a6.39,6.39,0,0,1-2.83-7.73,6.82,6.82,0,0,1,.48-1,6.46,6.46,0,0,1,8.82-2.18A178.06,178.06,0,0,0,415,769.9h0c88.16,29.37,182.94-15,214.74-99.21q1.23-3.23,2.32-6.53c29.45-89-20.62-184.89-110.87-215s-187.64,17-217.06,105.74c-17.48,52.81-2.2,88.26-4.25,93.69-2.22,5.88-10.92,5.19-12.35-.94a178.52,178.52,0,0,1,6.81-103.86C350,396.32,559.92,387.34,633.06,529.17c22.51,43.64,26.51,93,11.27,139.08q-1.19,3.57-2.51,7.08c-16.15,42.77-47.68,77.26-89.47,97.61-44.06,21.47-94.26,24.66-141.34,9Q407.41,780.71,403.85,779.37Z"/><path class="cls-2" d="M764.26,332a2.63,2.63,0,0,1-1.7-2.25c-.26-3.42-.44-6.91-.56-10.36a2.55,2.55,0,0,1,2.53-2.61c3.49-.08,2.54,3.41,3.24,12.67a2.54,2.54,0,0,1-2.42,2.71A2.5,2.5,0,0,1,764.26,332Z"/><path class="cls-2" d="M763,287.07c.64-6.56,1.55-13.17,2.72-19.66a2.56,2.56,0,0,1,3-2c3.87.75,1.35,2.93-.54,22.27a2.56,2.56,0,0,1-2.85,2.27A2.62,2.62,0,0,1,763,287.07Zm10.41-50.94c2-6.32,4.27-12.67,6.7-18.67,1.3-3.22,6.11-1.12,4.86,2-2.42,6-4.62,12.11-6.57,18.29a2.62,2.62,0,0,1-5-1.58Zm20.68-47.68c3.24-5.73,6.75-11.4,10.45-16.87,1.9-2.81,6.25.09,4.36,2.89-3.62,5.35-7.06,10.91-10.23,16.53C797,194,792.47,191.4,794.13,188.45Zm30.51-38.75a2.54,2.54,0,0,1-.27-3.63c4.37-4.94,9-9.77,13.77-14.36,2.46-2.36,6.14,1.34,3.69,3.69-4.67,4.5-9.22,9.24-13.51,14.08A2.63,2.63,0,0,1,824.64,149.7Zm37.75-35.31a2.53,2.53,0,0,1,.48-3.59c5.33-4,10.88-7.74,16.5-11.26,2.9-1.81,5.75,2.53,2.85,4.34-5.51,3.45-11,7.16-16.16,11A2.66,2.66,0,0,1,862.39,114.39ZM908.2,88.78a2.69,2.69,0,0,1-1.45-1.31A2.51,2.51,0,0,1,908,84.06c6-2.8,12.28-5.39,18.52-7.71a2.66,2.66,0,0,1,3.39,1.5,2.52,2.52,0,0,1-1.48,3.31c-6.11,2.27-12.22,4.81-18.15,7.55A2.63,2.63,0,0,1,908.2,88.78Zm49.29-17a2.61,2.61,0,0,1-1.63-1.8,2.53,2.53,0,0,1,1.89-3.09c6.51-1.52,13.16-2.81,19.78-3.82a2.64,2.64,0,0,1,3,2.14,2.52,2.52,0,0,1-2.13,2.93c-6.48,1-13,2.26-19.38,3.75A2.68,2.68,0,0,1,957.49,71.82Zm50.22-9a2.54,2.54,0,0,1,2.5-2.64c6.7-.17,13.5-.09,20.22.25,3.46.19,3.25,5.3-.19,5.13-6.58-.34-13.25-.42-19.82-.24A2.65,2.65,0,0,1,1007.71,62.82ZM1175,118.57c-15.64-11.94-19.15-11.75-17-15a2.63,2.63,0,0,1,3.61-.72c5.65,3.66,11.22,7.59,16.57,11.67C1180.89,116.63,1177.74,120.67,1175,118.57ZM1060.12,66.23a2.57,2.57,0,0,1,3-2.07c6.62,1.18,13.28,2.62,19.81,4.3a2.56,2.56,0,1,1-1.25,5c-6.4-1.65-12.93-3.06-19.41-4.22A2.61,2.61,0,0,1,1060.12,66.23Zm70.51,25.09c-17.7-8.56-21.15-7.68-19.72-11.3a2.64,2.64,0,0,1,3.37-1.42c6.29,2.46,12.54,5.2,18.59,8.12a2.57,2.57,0,0,1,1.24,3.44A2.61,2.61,0,0,1,1130.63,91.32Z"/><path class="cls-2" d="M1206.61,147.18c-6-6.41-9.72-8.58-7.22-11a2.64,2.64,0,0,1,3.69,0c6.47,6.38,9.71,8.92,7.22,11.17A3,3,0,0,1,1206.61,147.18Z"/><path class="cls-2" d="M1276.45,334.24a2.59,2.59,0,0,1-1.7-2.56c.18-3.38.29-6.79.33-10.15a2.55,2.55,0,0,1,2.64-2.5,2.64,2.64,0,0,1,2.58,2.64c0,3.43-.15,6.91-.34,10.35a2.54,2.54,0,0,1-2.74,2.39A2.47,2.47,0,0,1,1276.45,334.24Z"/><path class="cls-2" d="M924.31,549.78c-6.71-2.74-13.39-5.8-19.85-9.09a2.57,2.57,0,0,1-1.16-3.46c1.82-3.54,3.3-.22,23,7.82a2.58,2.58,0,0,1,1.45,3.36A2.66,2.66,0,0,1,924.31,549.78Zm31.75,8.1c1-3.85,3.28-.91,24.06,2.77a2.61,2.61,0,0,1,2.15,3,2.57,2.57,0,0,1-3,2.07C972.16,564.44,965,562.87,958,561A2.6,2.6,0,0,1,956.06,557.88Zm-82-35.35c-6-4.12-11.81-8.54-17.4-13.14a2.54,2.54,0,0,1-.36-3.62c2.58-3,3.28.5,20.72,12.57a2.55,2.55,0,0,1,.67,3.58A2.62,2.62,0,0,1,874,522.53Zm139.63,46.81a2.61,2.61,0,0,1-1.71-2.5,2.55,2.55,0,0,1,2.68-2.45c7.1.28,14.27.27,21.33,0a2.64,2.64,0,0,1,2.76,2.45,2.53,2.53,0,0,1-2.45,2.68c-7.21.31-14.53.32-21.77,0A2.56,2.56,0,0,1,1013.64,569.34Zm56.25-3.86a2.68,2.68,0,0,1-1.66-1.94,2.52,2.52,0,0,1,2.06-3c6.94-1.25,13.92-2.81,20.73-4.64a2.66,2.66,0,0,1,3.23,1.81,2.52,2.52,0,0,1-1.79,3.15c-7,1.86-14.07,3.45-21.16,4.73A2.79,2.79,0,0,1,1069.89,565.48Zm53.85-15.93a2.59,2.59,0,0,1-1.48-1.39,2.51,2.51,0,0,1,1.33-3.36c6.48-2.72,12.92-5.74,19.14-9a2.65,2.65,0,0,1,3.54,1.08,2.51,2.51,0,0,1-1,3.46c-6.35,3.31-12.92,6.4-19.53,9.17A2.66,2.66,0,0,1,1123.74,549.55Zm48.86-27.13a2.64,2.64,0,0,1-1.19-.91,2.52,2.52,0,0,1,.55-3.58c5.7-4,11.3-8.38,16.63-12.89a2.64,2.64,0,0,1,3.68.29A2.53,2.53,0,0,1,1192,509c-5.44,4.6-11.15,9-17,13.16A2.65,2.65,0,0,1,1172.6,522.42Zm40.71-37.54c-3.06-2.66.54-3.19,13-19.84,2-2.71,6.26.38,4.22,3.09-4.26,5.68-8.82,11.25-13.57,16.55A2.63,2.63,0,0,1,1213.31,484.88ZM1245.87,440c-3.58-1.93-.21-3.21,8.21-22.23,1.37-3.08,6.17-1,4.79,2.11-2.87,6.49-6.06,12.92-9.47,19.13A2.6,2.6,0,0,1,1245.87,440Zm21.38-51.05a2.59,2.59,0,0,1-1.6-3.12c1.91-6.71,3.56-13.56,4.89-20.35a2.57,2.57,0,0,1,3.06-2,2.62,2.62,0,0,1,2.07,3c-1.36,6.93-3,13.91-5,20.76a2.57,2.57,0,0,1-3.21,1.73Z"/><path class="cls-2" d="M830.76,485c-6.17-6.66-9.29-9.34-6.69-11.47s4.21,1.22,10.53,8a2.52,2.52,0,0,1-.15,3.62A2.64,2.64,0,0,1,830.76,485Z"/><path class="cls-2" d="M859.31,420.13l37.11-4.59a166.12,166.12,0,0,0,40.24,34.33c1.45,35.79-1,38.4,2.84,39.67l42.77,14.25a3.09,3.09,0,0,0,3.41-1l22.52-29.07a165.7,165.7,0,0,0,52.72-3.37l27,26a3.13,3.13,0,0,0,3.53.57l40-19.5a3,3,0,0,0,1.64-3.1l-5.23-36.55a157.56,157.56,0,0,0,34.32-39l37.45-.14a3,3,0,0,0,2.87-2l13.85-41.83a3,3,0,0,0-1.08-3.36l-29.92-22.59a158.65,158.65,0,0,0-4.22-51.88c24.84-26.07,28.33-26.09,26.52-29.61-20.74-38.54-19.56-41.82-23.63-41.32l-37.1,4.59a166.17,166.17,0,0,0-40.25-34.33c-1.44-35.76,1-38.39-2.83-39.67-42.74-13.42-43.76-16.36-46.18-13.24l-22.52,29.08a165.41,165.41,0,0,0-52.72,3.36c-26.58-24.51-26.93-28.27-30.54-26.52-39.27,20-42.24,18.65-41.68,22.6l5.24,36.55a157.78,157.78,0,0,0-34.33,39c-35.74.87-39-1.63-40.31,2.19-13,41.63-16,42.75-12.77,45.2L858,297.32a158.38,158.38,0,0,0,4.22,51.88c-24.76,26-28.34,26.08-26.52,29.62C856.43,417.36,855.25,420.64,859.31,420.13Z"/><path class="cls-3" d="M978,309.52c1.59-23.68,22.51-41.38,46.62-39.45s42.45,22.75,40.86,46.43-22.51,41.38-46.63,39.46h0C994.68,354,976.36,333.2,978,309.52Zm41.11,42.6h0Zm5-74.38c-19.58-1.56-37,12.67-38.29,32.41-1.31,19.45,13.74,36.56,33.55,38.13s37-13,38.29-32.4S1043.83,279.31,1024.06,277.74Z"/><path class="cls-3" d="M983.53,415.56h0A115.71,115.71,0,0,1,966,407.21a3.86,3.86,0,0,1-1.71-4.68,3.29,3.29,0,0,1,.29-.6,3.92,3.92,0,0,1,5.35-1.32,108.39,108.39,0,0,0,20.34,9.2h0c53.48,17.82,111-9.1,130.28-60.18.49-1.31,1-2.63,1.4-4,17.87-54-12.5-112.16-67.26-130.42S940.88,225.57,923,279.39c-10.6,32-1.33,53.55-2.58,56.84a3.94,3.94,0,0,1-7.49-.57,108.34,108.34,0,0,1,4.13-63c33.8-89.47,161.13-94.92,205.5-8.88a108.42,108.42,0,0,1,6.83,84.38c-.48,1.44-1,2.87-1.52,4.29a108,108,0,0,1-54.28,59.22,113.05,113.05,0,0,1-85.74,5.44C986.42,416.62,985,416.1,983.53,415.56Z"/><path class="cls-4" d="M988.85,1791H602.13c-27.1,0-52.13,19.75-52.13,33.45v839.48c0,13.7,25,27.19,52.13,27.19H988.85c27.1,0,58.47-13.49,58.47-27.19V1824.41C1047.32,1810.71,1016,1791,988.85,1791Z"/><path class="cls-4" d="M486.64,2098.78c0-7.09-24.44-14.42-51.55-14.42H52.76c-27.11,0-51.31,7.33-51.31,14.42V2677.3c0,7.09,24.2,13.78,51.31,13.78H435.09c27.11,0,51.55-6.69,51.55-13.78Z"/><path class="cls-4" d="M2686.43,725.18c0-17.42-29.15-30.55-56.26-30.55H2243.12c-27.1,0-47.95,13.13-47.95,30.55V2654.4c0,17.42,20.85,36.68,47.95,36.68h387.05c27.11,0,56.26-19.26,56.26-36.68Z"/><path class="cls-4" d="M1590.84,1447c0-12.83-23.38-24.69-50.48-24.69H1158c-27.1,0-46.31,11.86-46.31,24.69V2666.43c0,12.83,19.21,24.65,46.31,24.65h382.34c27.1,0,50.48-11.82,50.48-24.65Z"/><path class="cls-4" d="M2135.2,1070.24c0-14.4-21.47-24-48.57-24H1704.29c-27.1,0-48.22,9.57-48.22,24v1596c0,14.4,21.12,24.85,48.22,24.85h382.34c27.1,0,48.57-10.45,48.57-24.85Z"/><path class="cls-4" d="M2103.65,703.5l309.49-455.56a22.21,22.21,0,0,1,36.93-.28l319.07,455.56c11,15.67.24,37.71-18.37,37.71H2122.22C2103.75,740.93,2093,719.21,2103.65,703.5Z"/><circle class="cls-5" cx="2462.9" cy="1739.72" r="306.64" transform="translate(-508.8 2251.09) rotate(-45)"/><circle class="cls-6" cx="2462.9" cy="1739.72" r="296.45" transform="translate(-508.8 2251.09) rotate(-45)"/><path class="cls-7" d="M2218.45,1623.37a6.72,6.72,0,0,1-3.06-.73,6.79,6.79,0,0,1-3-9.13c48-95.15,144-154.25,250.51-154.25a283,283,0,0,1,50.59,4.55,6.81,6.81,0,0,1-2.44,13.39,268.71,268.71,0,0,0-48.15-4.34c-101.34,0-192.67,56.24-238.37,146.78A6.8,6.8,0,0,1,2218.45,1623.37Z"/><circle class="cls-7" cx="2469.36" cy="1746.18" r="250.9" transform="translate(-511.47 2257.54) rotate(-45)"/><path class="cls-8" d="M2444.74,1932.7v-27.3c-28.46-1.14-56.6-7.85-76.6-16.6a15.81,15.81,0,0,1-8.72-18.66l6.93-25.42A15.92,15.92,0,0,1,2388,1834.3c19.83,8.32,44.31,14.89,70.72,14.89,27.4,0,47.84-9.29,47.84-28.34,0-17.18-15.79-27.4-53.88-37.62-54.35-14.87-93.38-38.56-93.38-86.41,0-43.21,31.59-76.19,86.41-85v-27.3a15.9,15.9,0,0,1,15.9-15.91h16a15.91,15.91,0,0,1,15.91,15.91V1609c26.33,1,45.5,5.55,60.71,10.9a15.83,15.83,0,0,1,9.89,19.11l-6.38,23.51a15.86,15.86,0,0,1-20.94,10.71,165.69,165.69,0,0,0-59.54-10.81c-32.52,0-41.81,13.47-41.81,25.55,0,14.87,19.51,25.09,61.78,38.1,60.4,18.11,85.48,43.2,85.48,88.26,0,41.35-30.66,78.51-90.12,87.8v30.55a15.91,15.91,0,0,1-15.91,15.91h-16A15.91,15.91,0,0,1,2444.74,1932.7Z"/><rect class="cls-9" x="2162.48" y="2132.55" width="600.85" height="114.45" rx="3.63"/><rect class="cls-10" x="2162.95" y="2261.77" width="600.85" height="114.45" rx="3.63"/><rect class="cls-11" x="2163.42" y="2390.99" width="600.85" height="114.45" rx="3.63"/><rect class="cls-12" x="2163.89" y="2516.86" width="600.85" height="114.45" rx="3.63"/><rect class="cls-13" x="2164.36" y="2642.74" width="600.85" height="114.45" rx="3.63"/><circle class="cls-14" cx="1811.98" cy="1875.62" r="306.64" transform="translate(-795.55 1830.62) rotate(-45)"/><circle class="cls-15" cx="1811.98" cy="1875.62" r="296.45" transform="translate(-795.55 1830.62) rotate(-45)"/><path class="cls-7" d="M1567.53,1759.28a6.88,6.88,0,0,1-3.06-.73,6.8,6.8,0,0,1-3-9.14c48-95.14,144-154.24,250.51-154.24a282.71,282.71,0,0,1,50.59,4.55,6.8,6.8,0,1,1-2.44,13.38,269.46,269.46,0,0,0-48.15-4.33c-101.33,0-192.67,56.24-238.37,146.77A6.81,6.81,0,0,1,1567.53,1759.28Z"/><circle class="cls-7" cx="1818.44" cy="1882.08" r="250.9" transform="translate(-798.22 1837.08) rotate(-45)"/><path class="cls-16" d="M1793.82,2068.61v-27.3c-28.46-1.14-56.6-7.86-76.59-16.61a15.78,15.78,0,0,1-8.73-18.65l6.93-25.43a15.92,15.92,0,0,1,21.61-10.41c19.83,8.31,44.32,14.89,70.72,14.89,27.41,0,47.85-9.29,47.85-28.34,0-17.19-15.8-27.41-53.89-37.63-54.35-14.86-93.38-38.56-93.38-86.4,0-43.21,31.59-76.19,86.41-85v-27.3a15.9,15.9,0,0,1,15.91-15.9h16a15.9,15.9,0,0,1,15.91,15.9v24.51c26.33,1.06,45.5,5.56,60.71,10.91a15.82,15.82,0,0,1,9.89,19.1l-6.38,23.52a15.87,15.87,0,0,1-20.94,10.71,165.47,165.47,0,0,0-59.54-10.81c-32.52,0-41.81,13.47-41.81,25.55,0,14.86,19.51,25.08,61.79,38.09,60.39,18.12,85.47,43.2,85.47,88.27,0,41.34-30.66,78.51-90.12,87.8v30.55a15.9,15.9,0,0,1-15.9,15.9h-16A15.9,15.9,0,0,1,1793.82,2068.61Z"/><rect class="cls-17" x="1511.56" y="2255.08" width="600.85" height="114.45" rx="3.63"/><rect class="cls-18" x="1512.03" y="2384.3" width="600.85" height="114.45" rx="3.63"/><rect class="cls-19" x="1512.5" y="2513.52" width="600.85" height="114.45" rx="3.63"/><rect class="cls-20" x="1512.97" y="2642.74" width="600.85" height="114.45" rx="3.63"/><path class="cls-21" d="M394.59,2478.48a5,5,0,0,1-3.82-1.77q-4.36-5.13-8.64-10.32a5,5,0,1,1,7.75-6.37q4.22,5.13,8.53,10.19a5,5,0,0,1-3.82,8.27Z"/><path class="cls-22" d="M369.47,2447.42a5,5,0,0,1-4-2c-5.43-7.08-10.79-14.31-15.92-21.5a5,5,0,1,1,8.15-5.83c5.08,7.1,10.37,14.23,15.73,21.22a5,5,0,0,1-4,8.07Zm-30.92-43.25a5,5,0,0,1-4.18-2.24c-4.91-7.4-9.75-15-14.4-22.55a5,5,0,1,1,8.55-5.25c4.59,7.47,9.37,14.95,14.21,22.25a5,5,0,0,1-4.18,7.79Zm-27.79-45.3a5,5,0,0,1-4.37-2.56c-4.4-7.78-8.68-15.71-12.73-23.54a5,5,0,0,1,8.91-4.61c4,7.73,8.22,15.54,12.56,23.22a5,5,0,0,1-1.91,6.84A5,5,0,0,1,310.76,2358.87Zm-24.4-47.22a5,5,0,0,1-4.54-2.89c-3.79-8.07-7.47-16.29-10.92-24.44a5,5,0,1,1,9.23-3.92c3.41,8,7,16.14,10.77,24.1a5,5,0,0,1-4.54,7.15Zm-20.73-48.94a5,5,0,0,1-4.69-3.24c-3.17-8.36-6.18-16.85-9-25.23a5,5,0,0,1,9.52-3.17c2.75,8.25,5.73,16.62,8.84,24.85a5,5,0,0,1-2.92,6.46A4.78,4.78,0,0,1,265.63,2262.71Zm-16.81-50.42a5,5,0,0,1-4.81-3.62c-2.47-8.54-4.79-17.24-6.9-25.88a5,5,0,0,1,9.74-2.39c2.08,8.51,4.37,17.08,6.8,25.49a5,5,0,0,1-3.43,6.21A5.24,5.24,0,0,1,248.82,2212.29Zm-12.62-51.61a5,5,0,0,1-4.92-4c-1.76-8.76-3.34-17.63-4.71-26.37a5,5,0,0,1,9.91-1.55c1.35,8.59,2.91,17.32,4.64,25.94a5,5,0,0,1-3.93,5.91A4.75,4.75,0,0,1,236.2,2160.68ZM228,2108.19a5,5,0,0,1-5-4.46c-1-8.69-1.78-17.67-2.4-26.68a5,5,0,0,1,10-.69c.61,8.87,1.4,17.71,2.36,26.25a5,5,0,0,1-4.43,5.55A5.12,5.12,0,0,1,228,2108.19Zm-3.67-53a5,5,0,0,1-5-4.88c-.2-6.76-.29-13.64-.29-20.44,0-2.1,0-4.21,0-6.31a5.16,5.16,0,0,1,5.06-5,5,5,0,0,1,5,5c0,2.09,0,4.16,0,6.24,0,6.7.1,13.48.29,20.16a5,5,0,0,1-4.87,5.15Zm.45-53.15h-.23a5,5,0,0,1-4.79-5.23c.39-8.85.94-17.83,1.64-26.71a5,5,0,0,1,10,.79c-.68,8.76-1.23,17.63-1.62,26.36A5,5,0,0,1,224.75,2002Zm4.15-53a5.12,5.12,0,0,1-.56,0,5,5,0,0,1-4.43-5.54c1-8.76,2.12-17.69,3.4-26.53a5,5,0,1,1,9.92,1.43c-1.25,8.74-2.38,17.56-3.35,26.21A5,5,0,0,1,228.9,1949Zm7.6-52.62a4.43,4.43,0,0,1-.88-.08,5,5,0,0,1-4.06-5.81c1.54-8.73,3.25-17.56,5.07-26.26a5,5,0,0,1,9.82,2.06c-1.8,8.6-3.49,17.32-5,26A5,5,0,0,1,236.5,1896.41Zm10.9-52a5.44,5.44,0,0,1-1.19-.14,5,5,0,0,1-3.69-6.06c2.1-8.66,4.36-17.36,6.71-25.86a5,5,0,0,1,9.67,2.67c-2.32,8.4-4.55,17-6.63,25.56A5,5,0,0,1,247.4,1844.42Zm14.14-51.2a5.17,5.17,0,0,1-1.49-.22,5,5,0,0,1-3.3-6.28c2.63-8.47,5.44-17,8.35-25.4a5,5,0,1,1,9.47,3.29c-2.87,8.28-5.64,16.72-8.24,25.08A5,5,0,0,1,261.54,1793.22ZM279,1743a5.16,5.16,0,0,1-1.8-.33,5,5,0,0,1-2.88-6.48c3.21-8.38,6.59-16.73,10-24.82a5,5,0,0,1,9.24,3.92c-3.39,8-6.72,16.22-9.9,24.49A5,5,0,0,1,279,1743Zm20.76-49a5,5,0,0,1-4.54-7.14c3.77-8.08,7.72-16.18,11.75-24.06a5,5,0,0,1,8.94,4.56c-4,7.78-7.88,15.77-11.6,23.74A5,5,0,0,1,299.72,1694.06Zm441.53-25.62a92.16,92.16,0,0,1-14.39-1.13,5,5,0,1,1,1.58-9.91,83.16,83.16,0,0,0,25,.13,5,5,0,0,1,1.43,9.93A95.75,95.75,0,0,1,741.25,1668.44Zm38.35-8.19a5,5,0,0,1-2-9.63,121,121,0,0,0,22.2-12.49,5,5,0,1,1,5.78,8.2,132,132,0,0,1-24,13.52A5.1,5.1,0,0,1,779.6,1660.25Zm-77.17-1a5,5,0,0,1-2.2-.52,112.27,112.27,0,0,1-23.13-15.32,5,5,0,1,1,6.5-7.64,102.22,102.22,0,0,0,21,14,5,5,0,0,1-2.22,9.52ZM324,1646.7a5,5,0,0,1-2.45-.64,5,5,0,0,1-1.92-6.83c4.36-7.79,8.92-15.57,13.56-23.12a5,5,0,0,1,8.55,5.24c-4.57,7.44-9.06,15.11-13.36,22.79A5,5,0,0,1,324,1646.7Zm499-16.63a5,5,0,0,1-3.56-8.55,170.23,170.23,0,0,0,16.7-19.66,5,5,0,1,1,8.11,5.9,179.33,179.33,0,0,1-17.69,20.82A5,5,0,0,1,823,1630.07Zm-161-4.49a5,5,0,0,1-3.9-1.86c-3.2-4-6.37-8.25-9.4-12.72-2.12-3.14-4.19-6.38-6.16-9.64a5,5,0,1,1,8.59-5.18c1.87,3.11,3.85,6.2,5.88,9.2,2.87,4.23,5.86,8.28,8.89,12a5,5,0,0,1-.75,7A4.94,4.94,0,0,1,661.91,1625.58Zm-310.12-24.22a5,5,0,0,1-4.16-7.82c5-7.47,10.22-14.85,15.44-21.93a5,5,0,1,1,8.07,6c-5.13,7-10.24,14.23-15.19,21.58A5,5,0,0,1,351.79,1601.36ZM854,1587.16a5,5,0,0,1-4.52-7.2,120.08,120.08,0,0,0,8.6-24,5,5,0,0,1,9.75,2.36,130.83,130.83,0,0,1-9.31,26A5,5,0,0,1,854,1587.16Zm-219.61-6.87a5,5,0,0,1-4.57-2.94,247.42,247.42,0,0,1-9.85-25.26,5,5,0,0,1,9.53-3.13,236.56,236.56,0,0,0,9.45,24.23,5,5,0,0,1-2.48,6.64A5,5,0,0,1,634.36,1580.29Zm-251-21.74a5,5,0,0,1-3.89-8.17c5.65-7,11.5-13.85,17.4-20.45a5,5,0,1,1,7.47,6.69c-5.78,6.47-11.53,13.23-17.08,20.07A5,5,0,0,1,383.37,1558.55Zm483-22.66h-.1a5,5,0,0,1-4.92-5.12c0-.79,0-1.58,0-2.36a113.34,113.34,0,0,0-2.33-22.93,5,5,0,0,1,9.82-2,123.36,123.36,0,0,1,2.54,25c0,.85,0,1.71,0,2.56A5,5,0,0,1,866.35,1535.89Zm-248.56-6a5,5,0,0,1-4.9-4,256.11,256.11,0,0,1-4.22-26.77,5,5,0,0,1,10-1,246.4,246.4,0,0,0,4.05,25.71,5,5,0,0,1-3.86,6A4.75,4.75,0,0,1,617.79,1529.89Zm-199-11a5,5,0,0,1-3.57-8.55c6.32-6.39,12.84-12.64,19.38-18.59a5,5,0,0,1,6.75,7.42c-6.41,5.83-12.8,12-19,18.23A5,5,0,0,1,418.83,1518.91Zm436.78-34.61a5,5,0,0,1-4.55-2.89,107.53,107.53,0,0,0-5.08-9.61,135.25,135.25,0,0,0-8.15-12.18,5,5,0,0,1,8-6,146,146,0,0,1,8.75,13.08,116.65,116.65,0,0,1,5.54,10.49,5,5,0,0,1-4.54,7.13Zm-397.44-1.13a5,5,0,0,1-3.17-8.91c6.74-5.48,13.67-10.8,20.61-15.81l.69-.51a5,5,0,0,1,5.91,8.11l-.74.53c-6.77,4.9-13.55,10.11-20.14,15.46A5,5,0,0,1,458.17,1483.17Zm154.12-6.05h0a5,5,0,0,1-5-5,264.19,264.19,0,0,1,1.41-27,5,5,0,0,1,10,1,255.53,255.53,0,0,0-1.36,26A5,5,0,0,1,612.29,1477.12Zm-111-25a5,5,0,0,1-2.68-9.26c7.61-4.8,15.41-9.39,23.18-13.62a5,5,0,1,1,4.8,8.81c-7.58,4.13-15.2,8.6-22.63,13.3A5,5,0,0,1,501.28,1452.14ZM824,1442a5,5,0,0,1-3.4-1.33,151.15,151.15,0,0,0-20.32-15.73,5,5,0,1,1,5.46-8.42,162.39,162.39,0,0,1,21.66,16.77A5,5,0,0,1,824,1442Zm-276.12-15.22a5,5,0,0,1-2.1-9.57c8.19-3.79,16.54-7.3,24.82-10.44a5,5,0,0,1,3.56,9.38c-8.06,3.06-16.2,6.48-24.18,10.16A4.9,4.9,0,0,1,547.92,1426.74Zm69.8-2.4a5,5,0,0,1-4.92-6c1-5.07,2.24-10.18,3.58-15.28-5.8,1.4-11.61,3-17.37,4.67a5,5,0,0,1-2.86-9.61c7.74-2.3,15.59-4.34,23.36-6.08a5,5,0,0,1,9.57,3c-2.56,8.38-4.73,16.88-6.45,25.28A5,5,0,0,1,617.72,1424.34Zm162-11.31a5,5,0,0,1-2.06-.44,190.25,190.25,0,0,0-24.26-9,5,5,0,1,1,2.85-9.62,202.17,202.17,0,0,1,25.54,9.44,5,5,0,0,1-2.07,9.59ZM729,1397.87a6,6,0,0,1-.84-.07,243.09,243.09,0,0,0-25.86-2.93,5,5,0,1,1,.59-10,252.42,252.42,0,0,1,26.94,3,5,5,0,0,1-.83,10Zm-79.44-1a5,5,0,0,1-.64-10c9-1.16,18.08-1.92,26.92-2.26a5,5,0,1,1,.38,10c-8.54.33-17.3,1.07-26,2.19A4.68,4.68,0,0,1,649.51,1396.84Zm-16.33-23.27a5,5,0,0,1-4.64-6.9c3.34-8.22,7.12-16.48,11.22-24.55a5,5,0,0,1,8.94,4.54c-4,7.82-7.63,15.83-10.87,23.78A5,5,0,0,1,633.18,1373.57Zm24-47.36a5,5,0,0,1-4.29-7.63c4.59-7.51,9.58-15.07,14.83-22.47a5,5,0,0,1,8.18,5.82c-5.12,7.2-10,14.56-14.44,21.87A5,5,0,0,1,657.17,1326.21Zm30.88-43.14a5,5,0,0,1-3.8-8.28,250.94,250.94,0,0,1,18.66-19.58,5,5,0,1,1,6.88,7.3,241.93,241.93,0,0,0-17.92,18.8A5,5,0,0,1,688.05,1283.07Zm38.58-36.27a5,5,0,0,1-3-9,255.93,255.93,0,0,1,22.48-15.07,5,5,0,0,1,5.14,8.62,243.28,243.28,0,0,0-21.6,14.47A5,5,0,0,1,726.63,1246.8Zm45.49-27.21A5,5,0,0,1,770,1210c7.88-3.72,16-7.15,24.84-10.48a5,5,0,0,1,3.54,9.39c-8.58,3.23-16.46,6.56-24.1,10.16A5,5,0,0,1,772.12,1219.59Zm49.61-18.91a5,5,0,0,1-1.48-9.81c7.64-2.37,15.81-4.73,25.7-7.42a5,5,0,1,1,2.64,9.67c-9.78,2.67-17.84,5-25.37,7.34A5.12,5.12,0,0,1,821.73,1200.68Zm51.24-14.2a5,5,0,0,1-1.28-9.87c8.21-2.18,17-4.53,25.49-7a5,5,0,0,1,2.83,9.63c-8.62,2.53-17.47,4.91-25.76,7.11A5.18,5.18,0,0,1,873,1186.48Zm50.85-15.41a5,5,0,0,1-1.77-9.72,188.65,188.65,0,0,0,23.59-10.59,5,5,0,1,1,4.77,8.82,198.27,198.27,0,0,1-24.82,11.16A5,5,0,0,1,923.82,1171.07ZM970,1145.38a5,5,0,0,1-3.24-8.84,99,99,0,0,0,17-18.51,5,5,0,0,1,8.19,5.8,110.37,110.37,0,0,1-18.73,20.37A5,5,0,0,1,970,1145.38Zm30.44-42.67a4.93,4.93,0,0,1-1.91-.38,5,5,0,0,1-2.73-6.55c3.19-7.73,6.28-15.78,9.43-24.59a5,5,0,1,1,9.44,3.38c-3.21,9-6.34,17.15-9.59,25A5,5,0,0,1,1000.41,1102.71Zm18-50a5.15,5.15,0,0,1-1.54-.24,5,5,0,0,1-3.24-6.31q4.07-12.62,7.88-25.3a5,5,0,0,1,9.61,2.92c-2.59,8.5-5.21,17-7.94,25.45A5,5,0,0,1,1018.44,1052.72Zm15.6-50.81a5,5,0,0,1-4.8-6.48q3.85-12.75,7.9-25.45a5,5,0,1,1,9.55,3.06q-4,12.62-7.85,25.3A5,5,0,0,1,1034,1001.91Zm16.34-50.57a5.16,5.16,0,0,1-1.68-.29,5,5,0,0,1-3-6.41c3.19-9,6.31-17.17,9.53-25a5,5,0,1,1,9.28,3.8c-3.16,7.73-6.22,15.78-9.36,24.61A5,5,0,0,1,1050.38,951.34Zm20.22-49.09a5,5,0,0,1-4.52-7.2c4-8.27,8.25-16.28,12.61-23.81a5,5,0,0,1,8.68,5c-4.24,7.31-8.36,15.09-12.25,23.14A5,5,0,0,1,1070.6,902.25Zm26.71-45.86a5,5,0,0,1-4.11-7.89c5.18-7.4,10.72-14.6,16.48-21.4a5,5,0,0,1,7.66,6.48c-5.56,6.57-10.92,13.52-15.92,20.67A5,5,0,0,1,1097.31,856.39Zm34.27-40.49a5,5,0,0,1-3.52-8.59c4.74-4.65,9.72-9.22,14.82-13.61,1.75-1.5,3.5-3,5.27-4.44a5,5,0,1,1,6.38,7.74c-1.71,1.42-3.42,2.86-5.11,4.31-4.94,4.24-9.76,8.67-14.33,13.16A5,5,0,0,1,1131.58,815.9ZM1172.47,782a5,5,0,0,1-2.89-9.11c7.38-5.2,15-10.12,22.66-14.63a5,5,0,1,1,5.1,8.64c-7.43,4.38-14.83,9.15-22,14.19A4.94,4.94,0,0,1,1172.47,782Zm45.75-26.93a5,5,0,0,1-2.17-9.54c8.15-3.92,16.51-7.49,24.83-10.62a5,5,0,1,1,3.53,9.39c-8.05,3-16.13,6.48-24,10.28A5.08,5.08,0,0,1,1218.22,755.09Zm49.7-18.65a5,5,0,0,1-1.33-9.86c8.74-2.39,17.62-4.37,26.41-5.87a5,5,0,1,1,1.7,9.88c-8.47,1.46-17,3.36-25.45,5.67A5.19,5.19,0,0,1,1267.92,736.44Zm52.29-9a5,5,0,0,1-.34-10A260.68,260.68,0,0,1,1347,717a5,5,0,0,1,4.84,5.19,5,5,0,0,1-5.19,4.84,251.58,251.58,0,0,0-26,.46Z"/><path class="cls-23" d="M1387.23,731.74a4.92,4.92,0,0,1-1-.1c-4.28-.86-8.62-1.61-12.9-2.23a5,5,0,0,1,1.44-9.93c4.46.65,9,1.43,13.44,2.33a5,5,0,0,1-1,9.93Z"/><path class="cls-24" d="M1412.46,779.86s19.7,118.29-65.58,142.12-177.24,26.7-197.87,62.91c0,0,6.1-234.43,239.18-239.69Z"/><path class="cls-4" d="M1663.47,752s58.78,102,37.79,136c-20,32.29-246.53,172.76-268.59,186.39a2.19,2.19,0,0,1-2.94-.6h0a30.16,30.16,0,0,1-4.42-27c14.13-44.4,57.44-176.6,83.36-212.37C1540,791.15,1663.47,752,1663.47,752Z"/><path class="cls-3" d="M1504.51,1011a2.68,2.68,0,0,0,2.14-.35c1.24-.79,124-79.87,175.5-116a28.26,28.26,0,0,0,11.53-28.61c-3.41-17.29-11.15-50.91-24.63-81.9a2.71,2.71,0,0,0-5,2.16c13.28,30.52,20.92,63.71,24.29,80.78a22.87,22.87,0,0,1-9.33,23.14c-51.43,36-174.09,115.06-175.32,115.85a2.71,2.71,0,0,0-.81,3.75A2.68,2.68,0,0,0,1504.51,1011Z"/><path class="cls-4" d="M1501.92,531.21s-79.46-86.88-118.16-77.14c-36.82,9.26-239.23,182.73-258.9,199.64a2.2,2.2,0,0,0-.31,3h0a30.18,30.18,0,0,0,24.38,12.37c46.59,0,185.7-1.35,227.64-15.23C1427.21,637.07,1501.92,531.21,1501.92,531.21Z"/><path class="cls-3" d="M1209,607.15a2.72,2.72,0,0,0,2.4-.54c1.13-.94,113.54-94,163.45-132.07a22.89,22.89,0,0,1,24.88-1.9c15.25,8.38,44.58,25.7,69.65,47.59a2.71,2.71,0,0,0,3.56-4.08c-24.18-21.11-51.74-37.89-70.61-48.26a28.3,28.3,0,0,0-30.77,2.34c-50,38.19-162.48,131.28-163.61,132.21a2.69,2.69,0,0,0-.36,3.81A2.65,2.65,0,0,0,1209,607.15Z"/><path class="cls-25" d="M1981.7,517.18a608.28,608.28,0,0,1-133.43,135.09C1672.9,781.4,1521.66,846,1478.17,863.19a23.11,23.11,0,0,1-23.27-3.84A407,407,0,0,1,1339,703.51a33.55,33.55,0,0,1,5.13-34.49c34.68-41.83,140.18-161.22,308.71-283.81a608.17,608.17,0,0,1,167.89-85.92C1908.8,368.58,1957.29,462.43,1981.7,517.18Z"/><path class="cls-26" d="M1820.71,299.29c119.38-39.36,221.7-33.19,255.79-29.5a11.36,11.36,0,0,1,9.92,13.55c-6.77,33.49-31.69,132.32-104.72,233.84C1957.29,462.43,1908.8,368.58,1820.71,299.29Z"/><path class="cls-2" d="M1697.48,422C1652,455.3,1644,521.91,1679.8,570.77s101.64,61.46,147.17,28.14,53.44-99.93,17.68-148.79S1743,388.67,1697.48,422Z"/><path class="cls-27" d="M1711.13,435.79c-36.27,26.55-42.58,79.63-14.09,118.56s81,49,117.27,22.42,42.58-79.62,14.09-118.55S1747.4,409.25,1711.13,435.79Z"/><path class="cls-3" d="M1811.06,546.71a2.7,2.7,0,0,0,2.85-1c17.31-23.16,17-56.31-.83-80.63a71.31,71.31,0,0,0-15.93-15.81,2.71,2.71,0,0,0-3.16,4.4,65.6,65.6,0,0,1,14.72,14.61c16.41,22.41,16.76,52.92.86,74.19a2.7,2.7,0,0,0,.55,3.78A2.42,2.42,0,0,0,1811.06,546.71Z"/><path class="cls-2" d="M1553.8,573.23c-30.07,22-35.3,66-11.68,98.3s67.15,40.6,97.23,18.59,35.3-66,11.68-98.3S1583.88,551.22,1553.8,573.23Z"/><path class="cls-28" d="M1562.82,582.36c-24,17.53-28.13,52.6-9.31,78.32S1607,693,1631,675.49s28.13-52.6,9.31-78.32S1586.78,564.82,1562.82,582.36Z"/><path class="cls-3" d="M1628.61,656.52a2.69,2.69,0,0,0,2.84-1c11.68-15.61,11.46-38-.54-54.36a47.71,47.71,0,0,0-10.73-10.64,2.7,2.7,0,1,0-3.15,4.39,42.62,42.62,0,0,1,9.51,9.45c10.61,14.49,10.84,34.19.58,47.92a2.7,2.7,0,0,0,.54,3.79A2.59,2.59,0,0,0,1628.61,656.52Z"/><path class="cls-29" d="M1150.07,2680.72s-5.57,31.52-8.3,62.73a21.5,21.5,0,0,0,20.57,23.29c41.55,1.73,130.45,5.1,162.34,3.67a7,7,0,0,0,6.16-9.58,15.68,15.68,0,0,0-8-8.44L1176,2684.91Z"/><path class="cls-30" d="M1145.51,2662.2l4.47,37.7s25.72,12,43.29-1.51l-10.65-42Z"/><path class="cls-31" d="M1148.87,1953.3c-1.93,9.84-10.37,491.38,41.1,707.17a7.32,7.32,0,0,1-4.3,8.52,127.29,127.29,0,0,1-41.92,8.52,12.61,12.61,0,0,1-12.51-9.05c-14.71-50.07-85.22-300.92-94.41-540.55-10.28-267.77,0-9.12,0-9.12l6-165.51Z"/><path class="cls-32" d="M981.17,2697.16s-8.87,15.92-17.45,58.21a13.13,13.13,0,0,0,11.54,15.71c13.72,1.35,34.85,3.08,51.77,3a13.07,13.07,0,0,0,13-14.59c-1.88-15.43-7.72-40.76-25.75-60.49Z"/><path class="cls-33" d="M973.38,2648.66l10.45,57s10.34,7.69,30.79,2.11l-5-61.35Z"/><path class="cls-34" d="M945.14,1968.07c-42.1,254.07,9.13,627.94,26.41,701.12a11.4,11.4,0,0,0,9.21,8.66c7.72,1.28,20.41,2.32,32.93-1.31a10.46,10.46,0,0,0,7.52-9.63c2.32-59.16-1.85-422.35,37.37-565.89a32.57,32.57,0,0,1,12.58-18l76.13-54.13,5.84-87.49Z"/><path class="cls-35" d="M1213.39,1486.67C1087.23,1484.59,948,1519.8,948,1519.8c-37.61,219.43-6.58,472.52-6.58,472.52,97.67,25.61,207.85-15.66,207.85-15.66,16.23-91.72,92-349.83,92-349.83,61.64-7.65,112.42-25.44,154.24-48.95-31.9-37-46.94-84-53.47-111.83C1297.44,1479.91,1252.3,1487.32,1213.39,1486.67Z"/><path class="cls-36" d="M1586,1300.85c-12.39-15-28.08-7.89-28.08-7.89-18.56,78.42-115.91,142-215.92,173.09,6.53,27.81,21.57,74.86,53.47,111.83C1561.48,1484.56,1586,1300.85,1586,1300.85Z"/><path class="cls-37" d="M1583,1304.65c1.3,4.13-13.72,10.4-22.56-6.46-.31-8.08-5.22-42.7-.39-49.28,25.71-35.06,75.57-79,75.57-79,8.43,8.31,1.49,16.48,1.49,16.48l-24.19,25.2c5.06,9.14,11.23,16.86,14.12,27.92a33.88,33.88,0,0,1-3.38,24.94c-4.24,7.65-10,17.59-15.51,25.38C1597.81,1304.54,1583,1304.65,1583,1304.65Z"/><path class="cls-38" d="M1602.37,1227.93l-22,18.68-6.92,18.61,19.65,21.8s6.61-36.91,11.52-44.9S1606.94,1230.26,1602.37,1227.93Z"/><path class="cls-39" d="M996.42,1642,948,1519.8s-117.84,80.07-137.22,181.58c22.26,1.64,62.78,7.43,102.44,27.46C922,1680.9,996.42,1642,996.42,1642Z"/><path class="cls-40" d="M1099.4,1756.91s-132.31,74.77-177,10.92c-9.27-13.26-11.48-26.43-9.2-39-39.66-20-80.18-25.82-102.44-27.46-5.84,30.6-2.76,63.15,15.23,96,78.19,143,290.86-7.9,290.86-7.9Z"/><path class="cls-41" d="M1083.5,1851.5l72.21-252.16a7.37,7.37,0,0,1,6.21-5.3c13.09-1.52,51-5.81,94.76-9.51,52.73-4.46,114-8.07,150.54-5a7.38,7.38,0,0,1,6,10.62c-20.81,42.09-106.39,213.31-149.24,269.39a7.42,7.42,0,0,1-6,2.93l-167.53-1.56A7.38,7.38,0,0,1,1083.5,1851.5Z"/><path class="cls-2" d="M1264.17,1562.67l52.36-8.72a3.75,3.75,0,0,1,4.18,4.88l-5.18,15.7a3.76,3.76,0,0,1-3.07,2.55l-50.38,6.73a3.76,3.76,0,0,1-4.16-4.58l3.21-13.71A3.77,3.77,0,0,1,1264.17,1562.67Z"/><path class="cls-2" d="M1225,1607l4.32-22.47a5.18,5.18,0,0,1,4.57-4.18l105.74-10.73a5.18,5.18,0,0,1,5.57,6.37l-6.72,28a5.2,5.2,0,0,1-4.79,4l-103.32,5.2A5.2,5.2,0,0,1,1225,1607Z"/><path class="cls-42" d="M1100.94,1790.58s-10-41.36-6-56,11.92-33.54,38.12-29.34,57.12,15.23,57.12,15.23-1.56,19.11-21.48,12.94l12.35,9.56s-1.76,15.3-18.59,7.13l11.49,12.67s-7.22,12.57-19.6,4.51S1136,1795.56,1100.94,1790.58Z"/><path class="cls-43" d="M1085.6,1384.25l-40.14,116.09a4.18,4.18,0,0,0,1.9,5c11,6,50.37,23.53,97.88-6.59a19.68,19.68,0,0,0,9.07-14.06l13-100.48Z"/><path class="cls-44" d="M1172.94,1276.75s44.08,83,38.43,116.5-60.28,31.11-108,3.88l-33.34-89.59Z"/><path class="cls-45" d="M1105.5,1353.13a3.42,3.42,0,0,0,1.49-5c-3.53-5.4-10.15-16.4-12.26-26,0,0-7.93-5.07,20.16-11.8s70-17.16,78.8-41.07c8.58-23.32-14-82-50-35.23a3.42,3.42,0,0,1-5.42,0c-5.9-7.68-21.41-23.62-43-14-20.15,9-22.42,23.81-22.14,31.25a3.41,3.41,0,0,1-4,3.49c-10.19-2-34.64-3.62-46.05,21.47-9.4,20.66-3.29,32.35,2.27,38.07A3.41,3.41,0,0,1,1024,1320c-6.69,2-15.34,7.73-14.48,23.42,1.2,21.68,25.45,19.77,32.35,18.79a3.4,3.4,0,0,1,3,1.07c5.92,6.55,32.59,34.37,61.46,37.72a3.45,3.45,0,0,0,3.62-4.56l-12.5-36.31a3.44,3.44,0,0,1,1.86-4.26Z"/><path class="cls-46" d="M1110.52,1358.29s-31.39-21.53-33.68-3.4,28.26,26.27,43.4,19.5Z"/></g></g></svg>